<mxfile host="65bd71144e">
    <diagram id="bjRCLDIGCqWzzzeuEgwV" name="第 1 页">
        <mxGraphModel dx="690" dy="304" grid="1" gridSize="10" guides="1" tooltips="1" connect="1" arrows="1" fold="1" page="1" pageScale="1" pageWidth="827" pageHeight="1169" math="0" shadow="0">
            <root>
                <mxCell id="0"/>
                <mxCell id="1" parent="0"/>
                <mxCell id="2" value="function Person" style="swimlane;startSize=23;" parent="1" vertex="1">
                    <mxGeometry x="140" y="10" width="200" height="130" as="geometry"/>
                </mxCell>
                <mxCell id="8" value="prototype" style="text;html=1;align=center;verticalAlign=middle;resizable=0;points=[];autosize=1;strokeColor=none;fillColor=none;" parent="2" vertex="1">
                    <mxGeometry x="30" y="34" width="70" height="20" as="geometry"/>
                </mxCell>
                <mxCell id="15" value="" style="endArrow=classic;html=1;" parent="2" edge="1">
                    <mxGeometry width="50" height="50" relative="1" as="geometry">
                        <mxPoint x="93" y="44" as="sourcePoint"/>
                        <mxPoint x="290" y="44" as="targetPoint"/>
                    </mxGeometry>
                </mxCell>
                <mxCell id="28" value="&lt;strike&gt;this&lt;/strike&gt;.name = name&lt;br&gt;&lt;strike&gt;this&lt;/strike&gt;.friends=friends&lt;br&gt;&lt;strike&gt;this&lt;/strike&gt;.age=age" style="whiteSpace=wrap;html=1;labelBackgroundColor=none;fontSize=10;fillColor=none;" parent="2" vertex="1">
                    <mxGeometry x="40" y="60" width="120" height="60" as="geometry"/>
                </mxCell>
                <mxCell id="9" value="Person默认原型对象" style="swimlane;" parent="1" vertex="1">
                    <mxGeometry x="430" y="10" width="200" height="130" as="geometry"/>
                </mxCell>
                <mxCell id="10" value="constructor" style="text;html=1;align=center;verticalAlign=middle;resizable=0;points=[];autosize=1;strokeColor=none;fillColor=none;" parent="9" vertex="1">
                    <mxGeometry x="20" y="34" width="70" height="20" as="geometry"/>
                </mxCell>
                <mxCell id="11" value="addFunc&lt;br&gt;" style="text;html=1;align=center;verticalAlign=middle;resizable=0;points=[];autosize=1;strokeColor=none;fillColor=none;" parent="9" vertex="1">
                    <mxGeometry x="20" y="55" width="60" height="20" as="geometry"/>
                </mxCell>
                <mxCell id="12" value="Stu对象" style="swimlane;startSize=23;" parent="1" vertex="1">
                    <mxGeometry x="145" y="330" width="200" height="170" as="geometry"/>
                </mxCell>
                <mxCell id="13" value="__proto__" style="text;html=1;align=center;verticalAlign=middle;resizable=0;points=[];autosize=1;strokeColor=none;fillColor=none;" parent="12" vertex="1">
                    <mxGeometry x="30" y="34" width="70" height="20" as="geometry"/>
                </mxCell>
                <mxCell id="20" value="" style="endArrow=classic;html=1;" parent="12" edge="1">
                    <mxGeometry width="50" height="50" relative="1" as="geometry">
                        <mxPoint x="75" y="40" as="sourcePoint"/>
                        <mxPoint x="75" y="-80" as="targetPoint"/>
                    </mxGeometry>
                </mxCell>
                <mxCell id="38" value="name：&lt;font color=&quot;#98c379&quot;&gt;Thunder&lt;/font&gt;&lt;span style=&quot;font-family: &amp;quot;consolas&amp;quot; , &amp;quot;courier new&amp;quot; , monospace&quot;&gt;&lt;br&gt;&lt;font color=&quot;#ffffff&quot;&gt;age:18&lt;br&gt;&lt;/font&gt;friends:[&quot;thunder&quot;]&lt;br&gt;&lt;/span&gt;" style="whiteSpace=wrap;html=1;labelBackgroundColor=none;fontSize=10;fillColor=none;glass=1;shadow=0;rounded=1;dashed=1;align=left;" parent="12" vertex="1">
                    <mxGeometry x="35" y="90" width="120" height="60" as="geometry"/>
                </mxCell>
                <mxCell id="14" value="&lt;span style=&quot;color: rgb(51 , 51 , 51) ; font-family: , &amp;#34;consolas&amp;#34; , &amp;#34;liberation mono&amp;#34; , &amp;#34;menlo&amp;#34; , monospace ; background-color: rgb(248 , 248 , 248)&quot;&gt;sno &lt;/span&gt;&amp;nbsp;: 111" style="text;html=1;align=center;verticalAlign=middle;resizable=0;points=[];autosize=1;strokeColor=none;fillColor=none;" parent="12" vertex="1">
                    <mxGeometry x="30" y="54" width="70" height="20" as="geometry"/>
                </mxCell>
                <mxCell id="16" value="function Student" style="swimlane;" parent="1" vertex="1">
                    <mxGeometry x="140" y="200" width="230" height="80" as="geometry"/>
                </mxCell>
                <mxCell id="17" value="prototype" style="text;html=1;align=center;verticalAlign=middle;resizable=0;points=[];autosize=1;strokeColor=none;fillColor=none;" parent="16" vertex="1">
                    <mxGeometry x="30" y="34" width="70" height="20" as="geometry"/>
                </mxCell>
                <mxCell id="21" value="&lt;div style=&quot;color: rgb(171 , 178 , 191) ; font-family: &amp;#34;consolas&amp;#34; , &amp;#34;courier new&amp;#34; , monospace ; line-height: 19px&quot;&gt;&lt;span style=&quot;font-size: 10px&quot;&gt;&amp;nbsp; SuperType.&lt;/span&gt;&lt;span style=&quot;font-size: 10px ; color: rgb(97 , 175 , 239)&quot;&gt;call&lt;/span&gt;&lt;span style=&quot;font-size: 10px&quot;&gt;(&lt;/span&gt;&lt;span style=&quot;font-size: 10px ; color: rgb(224 , 108 , 117)&quot;&gt;this&lt;/span&gt;&lt;span style=&quot;font-size: 10px&quot;&gt;,&lt;/span&gt;&lt;span style=&quot;background-color: rgb(40 , 44 , 52) ; font-family: &amp;#34;consolas&amp;#34; , &amp;#34;courier new&amp;#34; , monospace&quot;&gt;&lt;font style=&quot;font-size: 10px&quot;&gt;name,age,friends&lt;/font&gt;&lt;/span&gt;&lt;span style=&quot;font-size: 10px&quot;&gt;);&lt;/span&gt;&lt;/div&gt;" style="text;html=1;align=center;verticalAlign=middle;resizable=0;points=[];autosize=1;strokeColor=none;fillColor=none;" parent="16" vertex="1">
                    <mxGeometry x="-5" y="50" width="240" height="30" as="geometry"/>
                </mxCell>
                <mxCell id="24" value="" style="endArrow=classic;html=1;fontSize=10;" parent="16" edge="1">
                    <mxGeometry width="50" height="50" relative="1" as="geometry">
                        <mxPoint x="130" y="54" as="sourcePoint"/>
                        <mxPoint x="130" y="-60" as="targetPoint"/>
                    </mxGeometry>
                </mxCell>
                <mxCell id="34" value="this = stu" style="edgeLabel;html=1;align=center;verticalAlign=middle;resizable=0;points=[];fontSize=10;" parent="24" vertex="1" connectable="0">
                    <mxGeometry x="0.4456" y="1" relative="1" as="geometry">
                        <mxPoint as="offset"/>
                    </mxGeometry>
                </mxCell>
                <mxCell id="36" value="" style="edgeStyle=elbowEdgeStyle;elbow=horizontal;endArrow=classic;html=1;fontSize=10;exitX=1;exitY=0.5;exitDx=0;exitDy=0;entryX=1.037;entryY=0.647;entryDx=0;entryDy=0;entryPerimeter=0;" parent="1" source="28" target="38" edge="1">
                    <mxGeometry width="50" height="50" relative="1" as="geometry">
                        <mxPoint x="380" y="250" as="sourcePoint"/>
                        <mxPoint x="420" y="410" as="targetPoint"/>
                        <Array as="points">
                            <mxPoint x="370" y="260"/>
                        </Array>
                    </mxGeometry>
                </mxCell>
                <mxCell id="39" value="&lt;font color=&quot;#ff3333&quot;&gt;Made by thunderchen&lt;/font&gt;" style="text;html=1;align=center;verticalAlign=middle;resizable=0;points=[];autosize=1;strokeColor=none;fillColor=none;fontSize=10;fontColor=#FFFFFF;" parent="1" vertex="1">
                    <mxGeometry x="365" y="230" width="110" height="20" as="geometry"/>
                </mxCell>
            </root>
        </mxGraphModel>
    </diagram>
</mxfile>